<svg xmlns="http://www.w3.org/2000/svg" viewBox="0 0 1024 1024">
    <rect width="1024" height="1024" rx="200" fill="#059669"/>
    <path fill="white" d="M750.386 164.562C749.879 166.944 728.459 199.451 725.544 204.151L673.862 288.224C693.619 306.435 706.711 324.689 712.298 351.693C718.127 379.859 712.421 409.186 696.459 433.113C680.771 456.691 656.35 473.062 628.58 478.616C607.136 482.856 582.126 480.356 562.268 471.103C555.333 467.872 549.753 464.196 543.486 459.963C543.467 445.992 542.834 425.267 543.806 411.774C550.393 422.064 560.567 432.163 571.313 438.001C629.288 469.471 697.023 416.163 677.711 352.245C672.752 335.832 661.128 319.248 645.831 310.973C638.025 317.182 630.384 323.931 622.58 330.279C649.89 342.316 661.744 375.065 643.506 399.708C636.381 409.435 625.657 415.902 613.729 417.665C602.114 419.341 589.914 416.667 580.786 409.285C569.3 399.998 566.123 391.24 564.377 377.347C554.89 385.5 544.316 393.843 534.549 401.737L534.791 458.334C534.806 461.719 534.842 465.349 534.865 468.734C534.964 483.143 537.876 498.698 518.016 499.373C505.986 499.781 490.99 501.006 489.872 484.592C489.269 475.748 489.587 466.464 489.576 457.551L489.503 401.281C479.676 393.706 470.539 385.564 460.582 378.085C458.28 391.064 455.195 400.666 444.265 409.114C434.816 416.304 422.89 419.43 411.129 417.801C370.991 412.524 359.286 359.145 391.706 336.472C394.653 334.411 398.1 332.363 400.855 330.364L400.523 329.583C392.84 323.635 386.086 317.326 377.999 311.524C352.792 326.364 340.61 358.219 345.286 386.497C348.332 405.269 358.727 422.055 374.175 433.147C390.944 445.027 411.793 449.648 432.01 445.966C453.601 442.18 467.637 430.457 479.84 413.208C480.248 428.354 480.098 444.796 479.991 460.004C479.598 460.336 479.203 460.665 478.806 460.992C459.581 476.822 430.771 482.548 406.429 480.129C378.207 477.299 352.277 463.335 334.383 441.328C316.443 419.032 308.136 390.502 311.304 362.06C314.459 333.315 328.744 306.948 351.1 288.604C330.143 255.653 310.167 221.891 289.14 188.972C284.202 181.24 279.005 172.448 273.648 165.146C282.89 171.639 293.47 180.351 302.469 187.42C321.071 202.046 339.589 216.779 358.022 231.618L511.494 354.853C519.218 349.782 527.099 342.591 534.383 336.759C550.524 324.007 566.591 311.163 582.585 298.227L697.979 206.117C715.354 192.147 732.824 178.295 750.386 164.562Z"/>
    <path fill="#F59E0B" d="M602.02 352.637C612.347 350.536 622.427 357.186 624.559 367.507C626.69 377.828 620.068 387.927 609.754 390.088C599.397 392.258 589.248 385.604 587.108 375.241C584.968 364.878 591.651 354.748 602.02 352.637Z"/>
    <path fill="#F59E0B" d="M414.78 352.662C425.175 350.479 435.353 357.196 437.433 367.611C439.512 378.027 432.694 388.138 422.258 390.113C411.969 392.061 402.03 385.359 399.979 375.09C397.929 364.82 404.532 354.815 414.78 352.662Z"/>
    <path fill="white" d="M388.772 518.541C399.424 522.802 409.769 529.196 417.949 537.254C428.848 548.168 436.424 561.953 439.796 577.004C442.087 587.42 441.608 599.83 441.702 610.642L442.064 649.086L443.321 795.04L491.477 822.26C491.546 833.791 491.501 845.321 491.343 856.851L439.736 856.9C423.417 856.976 407.097 856.882 390.779 856.618C390.671 849.911 390.69 843.202 390.835 836.496L442.395 836.416L442.51 794.844C424.89 784.253 406.465 774.813 388.689 764.388C388.081 752.544 388.552 736.295 388.54 724.201L388.54 644.625L388.504 562.399C388.515 548.708 388.119 532.057 388.772 518.541Z"/>
    <path fill="white" d="M307.596 422.873C308.984 425.056 311.602 432.633 312.753 435.54C322.193 459.388 340.483 484.832 362.603 498.549C361.254 581.545 363.971 666.325 362.378 749.247C331.727 735.212 308.574 715.976 308.188 679.75C308.093 670.838 308.038 661.845 308.004 652.927L308.004 574.263L307.495 467.654C307.474 453.393 307.028 436.847 307.596 422.873Z"/>
    <path fill="white" d="M716.167 423.336C716.812 425.864 716.585 439.902 716.58 443.421L716.543 485.762L716.555 613.391C716.557 636.853 716.663 660.497 716.407 683.961C716.354 688.861 714.988 695.267 713.346 699.873C703.416 727.721 687.116 736.777 662.629 748.971C662.067 744.01 662.443 728.809 662.447 723.449L662.498 669.875L662.522 498.885C692.82 474.865 703.23 459.447 716.167 423.336Z"/>
    <path fill="white" d="M635.266 518.505C635.731 520.284 635.615 533.593 635.618 536.513L635.572 581.536L635.513 763.915C621.615 772.566 596.989 786.367 582.686 793.404C582.291 782.177 582.681 768.777 582.749 757.44L583 696.85L583.373 635.038C583.553 578.555 578.574 548.734 635.266 518.505Z"/>
    <path fill="white" d="M499.647 247.219C527.597 245.43 567.112 248.316 594.419 254.881C585.696 262.343 576.642 269.221 567.704 276.406L519.256 315.376C516.76 317.359 514.241 319.312 511.7 321.236C504.047 314.426 493.765 306.699 485.655 300.062C467.263 284.899 448.713 269.928 430.008 255.153C454.287 249.92 474.845 248.21 499.647 247.219Z"/>
    <path fill="white" d="M582.361 793.974C582.834 797.833 582.598 805.271 582.579 809.449L582.506 836.499C599.317 836.809 616.681 836.625 633.535 836.659L633.511 856.921L583.25 856.909L532.141 856.912C532.237 845.723 532.643 833.305 532.229 822.232C548.832 813.428 565.588 803.04 582.361 793.974Z"/>
</svg>